<svg width="424" height="424" viewBox="0 0 424 424" fill="none" xmlns="http://www.w3.org/2000/svg">
<g filter="url(#filter0_dd_158_19)">
<path d="M409 309C409 364.228 364.228 409 309 409L109 409C53.7715 409 9 364.228 9 309L9 109C9 53.7715 53.7715 9 109 9L309 9C364.228 9 409 53.7715 409 109L409 309Z" fill="#262C2C"/>
</g>
<path d="M324.619 93.5333C319.443 88.3104 312.997 84.5259 305.913 82.5526C298.83 80.5793 291.355 80.4854 284.224 82.28C228.945 96.7925 178.319 125.257 137.195 164.947C129.105 173.085 122.797 182.817 118.671 193.525C114.545 204.233 112.691 215.681 113.227 227.144C113.991 243.783 119.832 259.79 129.963 273.011L84.2564 318.803C83.2376 319.787 82.425 320.964 81.866 322.265C81.307 323.566 81.0127 324.966 81.0004 326.382C80.9881 327.799 81.258 329.203 81.7943 330.514C82.3306 331.825 83.1227 333.016 84.1242 334.018C85.1257 335.019 86.3167 335.811 87.6276 336.347C88.9385 336.884 90.343 337.154 91.7594 337.141C93.1757 337.129 94.5753 336.835 95.8767 336.276C97.1781 335.717 98.3551 334.904 99.3391 333.885L145.035 288.189C159.041 299.125 176.311 305.048 194.08 305.011C205.839 304.84 217.449 302.355 228.247 297.697C239.046 293.04 248.821 286.3 257.014 277.864C303.947 230.931 330.432 155.773 335.883 133.597C337.655 126.517 337.548 119.096 335.572 112.069C333.597 105.043 329.821 98.6533 324.619 93.5333ZM134.539 226.163C134.138 217.658 135.509 209.164 138.567 201.218C141.624 193.272 146.301 186.049 152.299 180.008C156.864 175.475 161.611 171.219 166.464 167.059V236.595L145.238 257.821C138.77 248.482 135.062 237.511 134.539 226.163ZM241.611 263.059C231.452 274.1 217.687 281.154 202.792 282.953C187.896 284.752 172.848 281.177 160.352 272.872L184.662 248.563L213.547 219.677H275.008C265.347 235.213 254.159 249.745 241.611 263.059ZM315.211 128.445C308.782 152.766 299.471 176.231 287.478 198.344H234.88L270.006 163.219C271.025 162.235 271.837 161.058 272.396 159.756C272.955 158.455 273.249 157.055 273.262 155.639C273.274 154.223 273.004 152.818 272.468 151.507C271.932 150.196 271.139 149.005 270.138 148.004C269.136 147.002 267.945 146.21 266.635 145.674C265.324 145.138 263.919 144.868 262.503 144.88C261.087 144.892 259.687 145.187 258.385 145.746C257.084 146.305 255.907 147.117 254.923 148.136L201.59 201.469L187.798 215.261V150.472C218.635 128.86 253.006 112.794 289.366 102.995C291.054 102.57 292.788 102.351 294.528 102.344C297.324 102.35 300.091 102.908 302.67 103.986C305.249 105.064 307.59 106.641 309.558 108.627C312.156 111.143 314.043 114.301 315.028 117.782C316.013 121.262 316.062 124.94 315.168 128.445H315.211Z" fill="#05DE8B"/>
<defs>
<filter id="filter0_dd_158_19" x="0" y="0" width="424" height="424" filterUnits="userSpaceOnUse" color-interpolation-filters="sRGB">
<feFlood flood-opacity="0" result="BackgroundImageFix"/>
<feColorMatrix in="SourceAlpha" type="matrix" values="0 0 0 0 0 0 0 0 0 0 0 0 0 0 0 0 0 0 127 0" result="hardAlpha"/>
<feOffset dx="5" dy="5"/>
<feGaussianBlur stdDeviation="5"/>
<feComposite in2="hardAlpha" operator="out"/>
<feColorMatrix type="matrix" values="0 0 0 0 0.0431373 0 0 0 0 0.0431373 0 0 0 0 0.0431373 0 0 0 1 0"/>
<feBlend mode="normal" in2="BackgroundImageFix" result="effect1_dropShadow_158_19"/>
<feColorMatrix in="SourceAlpha" type="matrix" values="0 0 0 0 0 0 0 0 0 0 0 0 0 0 0 0 0 0 127 0" result="hardAlpha"/>
<feOffset dx="-3" dy="-3"/>
<feGaussianBlur stdDeviation="3"/>
<feComposite in2="hardAlpha" operator="out"/>
<feColorMatrix type="matrix" values="0 0 0 0 1 0 0 0 0 1 0 0 0 0 1 0 0 0 0.25 0"/>
<feBlend mode="normal" in2="effect1_dropShadow_158_19" result="effect2_dropShadow_158_19"/>
<feBlend mode="normal" in="SourceGraphic" in2="effect2_dropShadow_158_19" result="shape"/>
</filter>
</defs>
</svg>
