<svg width="400" height="400" viewBox="0 0 400 400" fill="none" xmlns="http://www.w3.org/2000/svg">
<path d="M400 400L0 400L0 0L400 0L400 400Z" fill="#262C2C"/>
<path d="M315.619 84.5333C310.443 79.3104 303.997 75.5259 296.913 73.5526C289.83 71.5793 282.355 71.4854 275.224 73.28C219.945 87.7925 169.319 116.257 128.195 155.947C120.105 164.085 113.797 173.817 109.671 184.525C105.545 195.233 103.691 206.681 104.227 218.144C104.991 234.783 110.832 250.79 120.963 264.011L75.2564 309.803C74.2376 310.787 73.425 311.964 72.866 313.265C72.307 314.566 72.0127 315.966 72.0004 317.382C71.9881 318.799 72.258 320.203 72.7943 321.514C73.3306 322.825 74.1227 324.016 75.1242 325.018C76.1257 326.019 77.3167 326.811 78.6276 327.347C79.9385 327.884 81.343 328.154 82.7594 328.141C84.1757 328.129 85.5753 327.835 86.8767 327.276C88.1781 326.717 89.3551 325.904 90.3391 324.885L136.035 279.189C150.041 290.125 167.311 296.048 185.08 296.011C196.839 295.84 208.449 293.355 219.247 288.697C230.046 284.04 239.821 277.3 248.014 268.864C294.947 221.931 321.432 146.773 326.883 124.597C328.655 117.517 328.548 110.096 326.572 103.069C324.597 96.0426 320.821 89.6533 315.619 84.5333V84.5333ZM125.539 217.163C125.138 208.658 126.509 200.164 129.567 192.218C132.624 184.272 137.301 177.049 143.299 171.008C147.864 166.475 152.611 162.219 157.464 158.059V227.595L136.238 248.821C129.77 239.482 126.062 228.511 125.539 217.163V217.163ZM232.611 254.059C222.452 265.1 208.687 272.154 193.792 273.953C178.896 275.752 163.848 272.177 151.352 263.872L175.662 239.563L204.547 210.677H266.008C256.347 226.213 245.159 240.745 232.611 254.059ZM306.211 119.445C299.782 143.766 290.471 167.231 278.478 189.344H225.88L261.006 154.219C262.025 153.235 262.837 152.058 263.396 150.756C263.955 149.455 264.249 148.055 264.262 146.639C264.274 145.223 264.004 143.818 263.468 142.507C262.932 141.196 262.139 140.005 261.138 139.004C260.136 138.002 258.945 137.21 257.635 136.674C256.324 136.138 254.919 135.868 253.503 135.88C252.087 135.892 250.687 136.187 249.385 136.746C248.084 137.305 246.907 138.117 245.923 139.136L192.59 192.469L178.798 206.261V141.472C209.635 119.86 244.006 103.794 280.366 93.9947C282.054 93.5697 283.788 93.3512 285.528 93.344C288.324 93.35 291.091 93.9081 293.67 94.9862C296.249 96.0644 298.59 97.6414 300.558 99.6267C303.156 102.143 305.043 105.301 306.028 108.782C307.013 112.262 307.062 115.94 306.168 119.445H306.211Z" fill="#05DE8B"/>
</svg>
